<?xml version="1.0" encoding="utf-8"?>
<!-- Generator: Adobe Illustrator 22.1.0, SVG Export Plug-In . SVG Version: 6.00 Build 0)  -->
<svg version="1.1" xmlns="http://www.w3.org/2000/svg" xmlns:xlink="http://www.w3.org/1999/xlink" x="0px" y="0px"
	 viewBox="0 0 512 512" style="enable-background:new 0 0 512 512;" xml:space="preserve">
<style type="text/css">
	.st0{fill:none;stroke:#003C43;stroke-width:20;stroke-miterlimit:10;}
	.st1{fill:#135D66;}
	.st2{fill:#E3FEF7;}
	.st3{fill:#77B0AA;}
</style>
<g id="Layer_2">
	<ellipse transform="matrix(0.2588 -0.9659 0.9659 0.2588 -57.5347 437.0193)" class="st0" cx="256" cy="256" rx="239.7" ry="161"/>
</g>
<g id="Layer_1">
	<path class="st1" d="M145,186.3h222c4.4,0,8,3.6,8,8v123.3c0,4.4-3.6,8-8,8H145c-4.4,0-8-3.6-8-8V194.3
		C137,189.9,140.6,186.3,145,186.3z"/>
	<rect x="192.5" y="182" class="st2" width="27" height="4.3"/>
	<rect x="202" y="158.7" class="st2" width="8" height="23.5"/>
	<path class="st2" d="M210,150.7h46v8h-54v0C202,154.2,205.6,150.7,210,150.7z"/>
	<rect x="292.5" y="182" transform="matrix(-1 -4.490243e-11 4.490243e-11 -1 612 368.3333)" class="st2" width="27" height="4.3"/>
	<rect x="302" y="158.7" transform="matrix(-1 -3.149138e-11 3.149138e-11 -1 612 340.8333)" class="st2" width="8" height="23.5"/>
	<path class="st2" d="M302,150.7h-46v8h54v0C310,154.2,306.4,150.7,302,150.7z"/>
	<rect x="192.5" y="186.3" class="st3" width="27" height="139.3"/>
	<rect x="292.5" y="186.3" class="st3" width="27" height="139.3"/>
</g>
</svg>
